PathFileType	4	(X/Y/Z)	 s02c0203.trc
DataRate	CameraRate	NumFrames	NumMarkers	Units	OrigDataRate	OrigDataStartFrame	OrigNumFrames
200	200	5	51	mm	200	501	2000
Frame#	Time	racr			lacr			c7			jug			rlel			rdr			llel			ldr			s2			lic			ric			lasi			rasi			rpsi			lpsi			rgt			lgt			rth1			rth2			rth3			rth4			rlfc			rmfc			rsh1			rsh2			rsh3			rsh4			rlmal			rmmal			rcal			rtoe			rmt5			rmt1			lth1			lth2			lth4			lth3			llfc			lmfc			lsh1			lsh2			lsh3			lsh4			llmal			lmmal			lcal			ltoe			lmt5			SBIKE			LBIKE			RBIKE			
		X1	Y1	Z1	X2	Y2	Z2	X3	Y3	Z3	X4	Y4	Z4	X5	Y5	Z5	X6	Y6	Z6	X7	Y7	Z7	X8	Y8	Z8	X9	Y9	Z9	X10	Y10	Z10	X11	Y11	Z11	X12	Y12	Z12	X13	Y13	Z13	X14	Y14	Z14	X15	Y15	Z15	X16	Y16	Z16	X17	Y17	Z17	X18	Y18	Z18	X19	Y19	Z19	X20	Y20	Z20	X21	Y21	Z21	X22	Y22	Z22	X23	Y23	Z23	X24	Y24	Z24	X25	Y25	Z25	X26	Y26	Z26	X27	Y27	Z27	X28	Y28	Z28	X29	Y29	Z29	X30	Y30	Z30	X31	Y31	Z31	X32	Y32	Z32	X33	Y33	Z33	X34	Y34	Z34	X35	Y35	Z35	X36	Y36	Z36	X37	Y37	Z37	X38	Y38	Z38	X39	Y39	Z39	X40	Y40	Z40	X41	Y41	Z41	X42	Y42	Z42	X43	Y43	Z43	X44	Y44	Z44	X45	Y45	Z45	X46	Y46	Z46	X47	Y47	Z47	X48	Y48	Z48	X49	Y49	Z49	X50	Y50	Z50	X51	Y51	Z51	
501	2.5050	572.726701	1197.821478	-195.790358	502.198784	1198.706382	-511.113823	523.461901	1235.593182	-362.890404	473.689500	1104.678679	-342.410629	538.416956	990.458572	-35.403567	692.332572	878.478757	-111.216163	479.230438	943.774084	-609.244365	677.065474	891.789022	-511.563912	-14.391260	1141.750887	-277.623572	106.031406	1131.668231	-436.267289	115.884463	1108.063662	-140.363147	144.547535	1107.360422	-418.520027	159.220454	1083.493312	-181.086586	9.841799	1169.226164	-235.355221	12.135498	1183.888606	-317.502915	84.333571	1022.061900	-107.136245	63.467256	1057.811622	-467.699157	173.438758	975.293207	-120.517262	251.822952	937.571300	-133.574776	306.093071	872.097545	-120.396830	269.493564	959.884881	-159.057872	376.783440	753.033435	-165.365970	349.732861	741.559682	-272.979754	320.400590	657.755753	-148.042978	272.583989	583.378100	-163.887460	203.686048	537.181095	-153.430324	279.877760	576.317089	-202.922129	104.639232	459.173096	-149.102966	124.957408	470.301367	-232.190032	18.388561	461.436743	-192.959928	236.936908	273.302638	-187.402087	143.659978	330.884816	-134.298834	174.213505	321.557345	-240.570298	180.333003	977.498726	-485.718846	257.057118	936.302774	-482.909334	278.968374	959.853004	-463.429699	302.020072	859.102451	-482.862550	372.306730	787.191262	-462.012330	376.655928	748.425489	-363.879095	372.282064	681.666662	-488.664220	385.755300	597.049857	-475.558158	354.673507	511.983492	-481.871078	402.472247	597.035325	-438.311288	325.202681	404.922047	-472.180059	339.116073	402.223163	-396.280036	269.380470	338.248353	-438.345028	556.916335	368.341433	-440.118757	455.102684	332.721030	-503.054014	-126.054454	871.610819	-308.018212	37.240388	86.446436	-514.230390	33.534464	83.464184	-114.429329	
502	2.5100	572.773306	1199.288399	-194.870887	502.771921	1198.930562	-510.871753	524.002132	1236.616239	-362.407719	473.371203	1106.114174	-341.350531	538.748139	990.817386	-35.441973	692.328430	878.342536	-111.566225	478.933172	943.837151	-608.804955	676.884469	891.772834	-511.420397	-13.980327	1141.701715	-278.419337	106.848458	1131.140107	-436.376753	115.664596	1108.630403	-140.724464	145.803805	1106.411968	-418.095233	159.039929	1083.942206	-181.185225	10.014744	1169.353522	-236.207572	12.728867	1183.568640	-318.448352	84.371475	1022.874598	-107.078244	64.257032	1056.820815	-467.920646	173.474522	976.404714	-120.972632	252.347412	939.666491	-133.162928	307.315248	874.685391	-119.752135	269.831080	962.055752	-158.653358	379.153916	756.029671	-164.490926	352.381181	744.566178	-272.234047	322.004785	661.022792	-147.754123	273.985399	586.934297	-163.635522	204.754734	540.960366	-153.261870	281.206957	579.892231	-202.611169	105.046126	464.207992	-149.220650	125.440043	475.323145	-232.293250	18.752316	466.739026	-193.202676	236.788507	278.150350	-187.337318	143.641708	336.005385	-134.359037	174.258667	326.546137	-240.643721	180.486383	975.450766	-485.913929	256.766368	933.352589	-483.000436	278.933990	956.720742	-463.668767	300.797834	855.605485	-482.801801	370.758728	783.465454	-462.613771	373.977775	744.664911	-364.431287	370.522079	677.618737	-488.754002	384.716818	593.068213	-475.690007	354.237430	507.908530	-482.131672	401.256535	593.183337	-438.399411	325.656399	400.531390	-472.521802	339.317598	397.953949	-396.712106	269.736105	334.272349	-438.777102	557.481902	362.682842	-439.844764	455.542760	327.735600	-503.011794	-126.073237	871.613481	-308.023962	37.251012	86.438820	-514.234671	33.538490	83.480855	-114.444752	
503	2.5150	572.803098	1200.949411	-193.976278	503.313484	1199.243331	-510.615065	524.447000	1237.746518	-362.011055	473.164364	1107.586576	-340.365323	539.115507	991.264755	-35.543563	692.397410	878.256441	-111.877487	478.651991	943.890328	-608.284887	676.676478	891.724483	-511.376498	-13.535243	1141.640939	-279.237253	107.698506	1130.600046	-436.495359	115.416532	1109.241035	-141.095174	147.079875	1105.413922	-417.581951	158.908842	1084.609472	-181.380249	10.235424	1169.492545	-237.015242	13.248083	1183.331220	-319.196700	84.406176	1023.650784	-107.013406	65.096436	1055.891598	-468.154139	173.620842	977.700954	-120.791083	252.862407	941.928065	-132.383608	308.593224	877.326516	-119.073226	270.205558	964.285869	-158.233125	381.589085	759.206769	-163.388656	354.909443	747.619316	-271.424358	324.067845	664.254704	-147.278374	275.416533	590.612385	-163.363129	205.649308	544.773848	-152.908122	283.466424	584.092451	-201.346969	105.652311	469.425202	-149.302172	126.153717	480.455993	-232.366764	19.527338	471.617781	-193.996660	236.811712	283.023875	-187.279963	143.826560	341.186007	-134.387625	174.301395	331.565301	-240.716040	180.670145	973.413932	-486.174793	256.425619	930.447730	-483.140975	278.874267	953.501834	-463.791798	299.600171	852.175305	-482.742423	368.631332	779.490055	-462.702212	371.274708	741.390519	-365.101486	368.763488	673.628447	-488.968897	383.525444	589.095864	-476.017401	353.690552	503.698694	-482.346954	399.973227	589.406930	-438.567813	325.995676	396.275720	-472.819130	339.450767	393.694723	-397.078987	269.959351	330.492998	-439.241996	557.960104	356.811036	-439.595577	455.920629	322.643449	-503.047685	-126.071426	871.606688	-307.957354	37.258757	86.431322	-514.216831	33.517979	83.405882	-114.399165	
504	2.5200	572.794858	1202.714190	-192.956339	503.791755	1199.595118	-510.401219	524.809329	1239.054497	-361.585297	472.865421	1109.240992	-339.388017	539.563195	991.809700	-35.712481	692.507957	878.217242	-112.094000	478.428676	944.022309	-607.706531	676.516579	891.647486	-511.340139	-12.986961	1141.530462	-280.115920	108.581869	1130.048015	-436.623282	115.159856	1109.676448	-141.517311	148.374842	1104.365582	-416.976851	158.764957	1085.209262	-181.538327	10.454497	1169.512012	-237.829099	13.955626	1182.877639	-320.313343	84.463978	1024.458054	-107.034788	65.987532	1054.840289	-468.367614	173.777731	978.936808	-120.606739	253.302320	944.094920	-131.466870	309.912406	880.116019	-118.404257	270.587755	966.457827	-157.793598	384.106648	762.510328	-162.565679	357.805329	751.044927	-270.820944	326.198861	667.554254	-146.795744	277.093104	594.338111	-162.971074	206.518364	548.784425	-152.607217	284.980176	587.851813	-201.104225	106.317075	474.539524	-149.369711	126.860690	485.628415	-232.391294	20.134639	477.059497	-194.062091	236.975655	288.052252	-187.278650	144.145558	346.320475	-134.378268	174.712813	336.649838	-240.665694	180.843152	971.415346	-486.415981	256.086158	927.484461	-483.287532	278.821296	950.408208	-464.047202	298.373521	848.790758	-482.840252	366.653515	775.428942	-462.811957	368.555453	738.679847	-365.893279	366.895520	669.676955	-489.181918	382.329530	585.183802	-476.254303	353.055119	499.698354	-482.739918	398.705971	585.634730	-438.799226	326.316067	391.996582	-473.217563	339.516021	389.448868	-397.389198	270.107813	326.733906	-439.729056	558.400872	350.949762	-439.428817	456.158883	317.611786	-503.039304	-126.073840	871.625673	-307.960433	37.254634	86.443377	-514.242175	33.550743	83.454721	-114.423776	
505	2.5250	572.683386	1204.576597	-191.930509	504.324799	1200.133812	-510.066287	525.284415	1240.465565	-360.995666	472.382763	1111.128137	-338.234645	540.002397	992.321981	-35.965617	692.768759	878.314605	-112.537997	478.223909	944.203004	-607.111083	676.364655	891.586259	-511.314748	-12.375723	1141.379032	-281.024045	109.498869	1129.483979	-436.760697	114.960057	1110.159199	-141.875671	149.687806	1103.266245	-416.276604	158.581346	1085.607499	-181.738232	10.677548	1169.445856	-238.718946	14.508610	1182.503506	-321.119626	84.464206	1025.221659	-107.021721	66.867213	1053.887468	-468.370437	173.950792	980.270832	-120.431055	253.915803	946.137723	-131.020099	311.181922	882.920399	-117.655842	270.886767	968.620365	-157.370941	386.526604	765.759913	-161.756070	360.987567	754.759086	-270.355672	328.395159	671.005075	-146.229650	278.685919	598.103848	-162.725833	207.404226	552.431654	-152.097803	286.662631	591.646380	-200.760190	107.152993	479.743653	-149.434746	127.666385	490.766606	-232.413043	21.040163	483.007970	-193.811216	237.281129	292.995869	-187.307643	144.558675	351.553042	-134.446750	175.136628	341.725466	-240.677226	181.043354	969.246387	-486.755950	255.812933	924.644034	-483.469030	278.789062	947.310456	-464.250794	297.170470	845.489021	-482.815756	364.548450	771.479974	-462.960448	366.256679	735.571777	-366.399751	365.062069	665.753986	-489.530175	380.952574	581.460769	-476.629612	352.338614	495.719377	-483.088015	397.345373	581.924734	-439.146281	326.423145	387.820937	-473.620703	339.513803	385.219765	-397.651260	270.081375	323.183417	-440.175212	558.533772	345.086256	-439.169954	456.236414	312.550197	-503.034001	-126.069456	871.631615	-307.964813	37.240352	86.436741	-514.231581	33.504001	83.405300	-114.402653	
